<?xml version="1.0" encoding="UTF-8"?>
<svg version="1.1" xmlns="http://www.w3.org/2000/svg" width="360" height="144">
<path d="M0 0 C12.07600202 9.83252046 19.65288952 23.79950465 22.68823242 38.99658203 C23.06961811 42.82193637 23.11947862 46.5922084 23.06323242 50.43408203 C23.05308105 51.44253174 23.04292969 52.45098145 23.0324707 53.48999023 C22.69749361 69.5623991 17.3291892 82.87771459 6.68823242 94.99658203 C6.10557617 95.67333984 5.52291992 96.35009766 4.92260742 97.04736328 C-6.38750922 109.28414915 -22.06235565 115.77415544 -38.49926758 116.93408203 C-57.05764111 117.55148389 -74.23882055 111.80141448 -88.06176758 99.30908203 C-93.56548482 94.15190405 -97.78262488 88.69890202 -101.31176758 81.99658203 C-101.70750977 81.26052734 -102.10325195 80.52447266 -102.51098633 79.76611328 C-110.05850715 64.36243696 -110.63402463 45.74025091 -105.63208008 29.49267578 C-101.68699581 19.04637277 -96.22851724 10.82999749 -88.31176758 2.99658203 C-87.42618164 2.06072266 -87.42618164 2.06072266 -86.52270508 1.10595703 C-62.80213756 -22.09213103 -24.68845569 -19.26049734 0 0 Z " fill="#13231A" transform="translate(111.311767578125,21.00341796875)"/>
<path d="M0 0 C12.07600202 9.83252046 19.65288952 23.79950465 22.68823242 38.99658203 C23.06961811 42.82193637 23.11947862 46.5922084 23.06323242 50.43408203 C23.05308105 51.44253174 23.04292969 52.45098145 23.0324707 53.48999023 C22.69749361 69.5623991 17.3291892 82.87771459 6.68823242 94.99658203 C6.10557617 95.67333984 5.52291992 96.35009766 4.92260742 97.04736328 C-6.38750922 109.28414915 -22.06235565 115.77415544 -38.49926758 116.93408203 C-57.05764111 117.55148389 -74.23882055 111.80141448 -88.06176758 99.30908203 C-93.56548482 94.15190405 -97.78262488 88.69890202 -101.31176758 81.99658203 C-101.70750977 81.26052734 -102.10325195 80.52447266 -102.51098633 79.76611328 C-110.05850715 64.36243696 -110.63402463 45.74025091 -105.63208008 29.49267578 C-101.68699581 19.04637277 -96.22851724 10.82999749 -88.31176758 2.99658203 C-87.42618164 2.06072266 -87.42618164 2.06072266 -86.52270508 1.10595703 C-62.80213756 -22.09213103 -24.68845569 -19.26049734 0 0 Z M-85.75708008 13.75439453 C-95.20751741 25.69999684 -100.66398794 39.64233788 -99.31176758 54.99658203 C-97.02419735 72.29893136 -89.25694513 85.63715122 -75.99926758 96.80908203 C-63.52266781 106.04133038 -48.44660837 108.41039247 -33.31176758 106.99658203 C-17.33327664 103.94645795 -4.59974218 95.48626874 4.52661133 82.19555664 C13.40611276 68.55234906 15.7719595 53.23783148 12.62573242 37.37158203 C8.58259364 22.09750219 -0.98208482 9.42589974 -14.58911133 1.42626953 C-38.83407319 -11.3049443 -67.22713947 -7.14358961 -85.75708008 13.75439453 Z " fill="#1A3224" transform="translate(111.311767578125,21.00341796875)"/>
<path d="M0 0 C2.64 0 5.28 0 8 0 C7.36843005 5.05255964 5.86540627 9.29593201 4 14 C7.96 14 11.92 14 16 14 C16.33 12.35 16.66 10.7 17 9 C17.64239456 7.37724427 18.32962672 5.77145193 19.0625 4.1875 C19.42472656 3.39730469 19.78695312 2.60710938 20.16015625 1.79296875 C20.43730469 1.20128906 20.71445313 0.60960937 21 0 C23.64 0 26.28 0 29 0 C28.19698181 4.97871275 26.65530916 9.03407253 25 14 C37.21 14 49.42 14 62 14 C61.34 16.64 60.68 19.28 60 22 C47.13 22 34.26 22 21 22 C20.01 25.3 19.02 28.6 18 32 C16.49576437 35.87815782 14.95151119 39.72768762 13.34179688 43.5625 C11.59348174 47.88669094 10.59859544 51.24373467 11 56 C13.29294488 56.85974801 13.29294488 56.85974801 16 57 C20.54335341 53.70240478 21.90297665 48.82336887 23.75 43.75 C24.22373047 42.48929688 24.22373047 42.48929688 24.70703125 41.203125 C25.48113985 39.13883539 26.24504423 37.0713542 27 35 C25.68 34.67 24.36 34.34 23 34 C23.99 32.02 24.98 30.04 26 28 C28.87602455 27.89147077 31.74790832 27.8124485 34.625 27.75 C35.43324219 27.71648438 36.24148437 27.68296875 37.07421875 27.6484375 C42.56370226 27.55917761 45.6708666 28.29692589 50 32 C52.72592115 36.08888173 52.51425205 39.20063281 52 44 C51.2293583 47.06996596 50.11809144 49.90585973 48.875 52.8125 C48.59140625 53.54919922 48.3078125 54.28589844 48.015625 55.04492188 C45.9709036 59.96558838 43.95347066 62.57662905 39 65 C36.33203125 65.42578125 36.33203125 65.42578125 33.8125 65.3125 C32.97332031 65.28800781 32.13414063 65.26351562 31.26953125 65.23828125 C29 65 29 65 26 64 C24.35 68.29 22.7 72.58 21 77 C18.03 77 15.06 77 12 77 C12.59924224 72.80530429 13.57499941 68.99000166 15 65 C14.113125 65.061875 13.22625 65.12375 12.3125 65.1875 C9 65 9 65 6.4375 63.375 C5.633125 62.92125 4.82875 62.4675 4 62 C1.34754398 62.66096786 1.34754398 62.66096786 -1 64 C-5.73199521 65.57733174 -9.55611468 65.52757348 -14.25 63.8125 C-17.40576082 61.73256673 -18.59779653 60.50550868 -20 57 C-21.0182633 48.88271239 -17.6532815 42.33200476 -14.5 35 C-13.96875312 33.73622234 -13.43879343 32.47190277 -12.91015625 31.20703125 C-11.61930705 28.13246315 -10.31568828 25.06400133 -9 22 C-12.96 22 -16.92 22 -21 22 C-19.125 15.125 -19.125 15.125 -18 14 C-15.81360547 13.92741054 -13.62499611 13.91626217 -11.4375 13.9375 C-9.64119141 13.95103516 -9.64119141 13.95103516 -7.80859375 13.96484375 C-6.88175781 13.97644531 -5.95492187 13.98804688 -5 14 C-4.87753906 13.27425781 -4.75507812 12.54851563 -4.62890625 11.80078125 C-4.00853366 9.03800392 -3.12379567 6.75142934 -1.9375 4.1875 C-1.57527344 3.39730469 -1.21304688 2.60710938 -0.83984375 1.79296875 C-0.56269531 1.20128906 -0.28554688 0.60960937 0 0 Z " fill="#F7F8F7" transform="translate(49,33)"/>
<path d="M0 0 C2.64 0 5.28 0 8 0 C8.99 2.31 9.98 4.62 11 7 C11.99 4.69 12.98 2.38 14 0 C16.31 0 18.62 0 21 0 C21.53107314 2.74837849 22.05015881 5.49812375 22.5625 8.25 C22.71396484 9.02730469 22.86542969 9.80460937 23.02148438 10.60546875 C23.16005859 11.35957031 23.29863281 12.11367187 23.44140625 12.890625 C23.57232666 13.58188477 23.70324707 14.27314453 23.83813477 14.98535156 C24.01710362 17.21287942 23.65206197 18.87506962 23 21 C21.02 21 19.04 21 17 21 C16.67 18.69 16.34 16.38 16 14 C15.01 16.31 14.02 18.62 13 21 C11.35 21 9.7 21 8 21 C6.23537317 17.91190305 6 16.76687864 6 13 C5.34 13 4.68 13 4 13 C4.020625 14.134375 4.04125 15.26875 4.0625 16.4375 C4 20 4 20 3 21 C1.33382885 21.04063832 -0.33388095 21.042721 -2 21 C-1.85845864 18.43719792 -1.71191438 15.87484515 -1.5625 13.3125 C-1.52318359 12.59126953 -1.48386719 11.87003906 -1.44335938 11.12695312 C-1.21814322 7.33292718 -0.87160695 3.71348508 0 0 Z " fill="#0F1E16" transform="translate(284,90)"/>
<path d="M0 0 C3.96 0 7.92 0 12 0 C9.8224088 6.62745148 7.54272899 13.20626246 5.125 19.75 C4.79886719 20.66910156 4.47273438 21.58820313 4.13671875 22.53515625 C2.18000105 27.79621434 0.49721632 31.53728711 -4 35 C-7.25 35.375 -7.25 35.375 -10 35 C-10.33 34.67 -10.66 34.34 -11 34 C-10.73907239 25.9280782 -8.0361692 19.32401131 -4.9375 11.9375 C-4.46505859 10.78572266 -3.99261719 9.63394531 -3.50585938 8.44726562 C-2.34744828 5.62729517 -1.17512421 2.81304687 0 0 Z " fill="#16251D" transform="translate(49,55)"/>
<path d="M0 0 C6 0 6 0 7.8984375 1.75 C8.38570312 2.4925 8.87296875 3.235 9.375 4 C9.87773437 4.7425 10.38046875 5.485 10.8984375 6.25 C11.26195312 6.8275 11.62546875 7.405 12 8 C12.33 5.36 12.66 2.72 13 0 C14.98 0 16.96 0 19 0 C19 6.93 19 13.86 19 21 C12 21 12 21 10.22265625 19.25 C9.83980469 18.5075 9.45695313 17.765 9.0625 17 C8.66160156 16.2575 8.26070312 15.515 7.84765625 14.75 C7.56792969 14.1725 7.28820312 13.595 7 13 C6.67 15.64 6.34 18.28 6 21 C4.02 21 2.04 21 0 21 C0 14.07 0 7.14 0 0 Z " fill="#102017" transform="translate(207,61)"/>
<path d="M0 0 C6 0 6 0 7.8984375 1.75 C8.38570312 2.4925 8.87296875 3.235 9.375 4 C9.87773437 4.7425 10.38046875 5.485 10.8984375 6.25 C11.26195312 6.8275 11.62546875 7.405 12 8 C12.33 5.36 12.66 2.72 13 0 C14.98 0 16.96 0 19 0 C19 6.93 19 13.86 19 21 C13 21 13 21 11.1015625 19.25 C10.37066406 18.13625 10.37066406 18.13625 9.625 17 C8.87089844 15.88625 8.87089844 15.88625 8.1015625 14.75 C7.73804688 14.1725 7.37453125 13.595 7 13 C6.67 15.64 6.34 18.28 6 21 C4.02 21 2.04 21 0 21 C0 14.07 0 7.14 0 0 Z " fill="#102017" transform="translate(225,33)"/>
<path d="M0 0 C2.95639385 2.03252077 4.51104902 3.48730791 5.625 6.93359375 C6.23731521 10.30770571 6.14566145 12.65501236 4.8125 15.8125 C2.38656816 18.74034877 0.4079526 20.72527754 -3.40234375 21.46875 C-7.81676475 21.52316505 -10.28819797 21.46485031 -14.0625 19 C-16.46713892 15.27668812 -17.29460042 12.41900623 -17 8 C-15.79804886 4.46092165 -14.6253292 2.5701531 -11.875 0.0625 C-7.70041769 -1.48028042 -4.25170062 -1.24007935 0 0 Z M-8 5 C-10.56687367 8.8503105 -9.83288724 10.58569763 -9 15 C-7.20800528 15.78282648 -7.20800528 15.78282648 -5 16 C-2.75244247 14.6483633 -2.75244247 14.6483633 -1 13 C-1.33 10.69 -1.66 8.38 -2 6 C-4.97 5.505 -4.97 5.505 -8 5 Z " fill="#101F16" transform="translate(305,33)"/>
<path d="M0 0 C3.63016953 2.57137008 4.75896167 4.17143075 6 8.4375 C6 13.35557017 4.56186364 16.19784965 1.375 19.875 C-2.29396567 21.61293111 -6.01022341 21.5408676 -10 21 C-13.14034559 19.77436152 -13.87983237 19.18883484 -15.75 16.25 C-17.10108566 12.73717728 -17.54213837 10.71752025 -17 7 C-12.8509122 -0.70544878 -8.23466418 -2.2458175 0 0 Z M-10 7 C-10.25015873 10.58357241 -10.25015873 10.58357241 -10 14 C-7.73398135 15.29042763 -7.73398135 15.29042763 -5 16 C-2.57695632 15.0785608 -2.57695632 15.0785608 -1 13 C-0.41666667 10.5 -0.41666667 10.5 -1 8 C-2.20918882 6.12359581 -2.20918882 6.12359581 -4 5 C-7.18490007 4.7226499 -7.18490007 4.7226499 -10 7 Z " fill="#101F16" transform="translate(264,33)"/>
<path d="M0 0 C3.30381513 2.40903187 4.6612769 4.02617109 6 7.875 C6 12.68295519 4.45633282 16.26360318 1.375 19.9375 C-2.42329781 21.63673849 -5.92305917 21.73356721 -10 21 C-12.93555578 19.68448123 -13.8299948 18.60400624 -16 16 C-17.50380531 11.86241139 -17.28243633 8.83161807 -15.875 4.6875 C-11.6418038 -1.38008122 -6.83538661 -2.01842032 0 0 Z M-10 7 C-10.28602162 11.14509433 -10.28602162 11.14509433 -9 15 C-6.08347826 15.16681109 -6.08347826 15.16681109 -3 15 C-2.34 14.34 -1.68 13.68 -1 13 C-1.09695116 8.65805064 -1.09695116 8.65805064 -3 5 C-6.961168 4.60909667 -6.961168 4.60909667 -10 7 Z " fill="#101F16" transform="translate(254,90)"/>
<path d="M0 0 C4.20803923 0.06622093 7.14188587 0.14188587 10.25 3.25 C11.25 6.75 11.25 6.75 11.25 10.25 C9.8125 12.1875 9.8125 12.1875 8.25 13.25 C8.559375 14.013125 8.86875 14.77625 9.1875 15.5625 C9.92893593 17.43789677 10.61228217 19.33684652 11.25 21.25 C7.875 21.375 7.875 21.375 4.25 21.25 C3.59 20.59 2.93 19.93 2.25 19.25 C1.92 19.91 1.59 20.57 1.25 21.25 C-1.06 21.25 -3.37 21.25 -5.75 21.25 C-5.77888146 17.93751813 -5.79675799 14.62506833 -5.8125 11.3125 C-5.82087891 10.36697266 -5.82925781 9.42144531 -5.83789062 8.44726562 C-5.84111328 7.54814453 -5.84433594 6.64902344 -5.84765625 5.72265625 C-5.85289307 4.89000244 -5.85812988 4.05734863 -5.86352539 3.19946289 C-5.64087579 -0.62388565 -3.3012972 0.05860291 0 0 Z M1.25 6.25 C1.25 7.57 1.25 8.89 1.25 10.25 C2.24 9.92 3.23 9.59 4.25 9.25 C3.92 8.26 3.59 7.27 3.25 6.25 C2.59 6.25 1.93 6.25 1.25 6.25 Z " fill="#0F1F16" transform="translate(288.75,60.75)"/>
<path d="M0 0 C1.98 0 3.96 0 6 0 C6 2.64 6 5.28 6 8 C7.98 8 9.96 8 12 8 C12 5.36 12 2.72 12 0 C14.31 0 16.62 0 19 0 C19 6.93 19 13.86 19 21 C16.69 21 14.38 21 12 21 C12 18.36 12 15.72 12 13 C10.02 13 8.04 13 6 13 C6 15.64 6 18.28 6 21 C4.02 21 2.04 21 0 21 C0 14.07 0 7.14 0 0 Z " fill="#0F2017" transform="translate(202,33)"/>
<path d="M0 0 C0.79664063 0.09023438 1.59328125 0.18046875 2.4140625 0.2734375 C4.375 0.625 4.375 0.625 5.375 1.625 C5.41563832 3.29117115 5.417721 4.95888095 5.375 6.625 C2.30609813 8.15945094 -0.32594266 7.17484289 -3.625 6.625 C-5.95891203 9.40614056 -5.95891203 9.40614056 -5.25 12.3125 C-5.04375 13.075625 -4.8375 13.83875 -4.625 14.625 C-3.305 14.955 -1.985 15.285 -0.625 15.625 C-0.295 13.645 0.035 11.665 0.375 9.625 C2.04111905 9.582279 3.70882885 9.58436168 5.375 9.625 C6.96367866 11.21367866 6.58294039 12.87189516 6.625 15.0625 C6.65078125 15.86558594 6.6765625 16.66867188 6.703125 17.49609375 C6.59484375 18.19863281 6.4865625 18.90117188 6.375 19.625 C2.12759201 22.45660532 -1.63846043 22.27022317 -6.625 21.625 C-9.80907594 19.83395728 -11.15221167 18.42014401 -13 15.3125 C-13.84594728 11.67492671 -13.59185978 9.23460985 -12.625 5.625 C-8.74798968 0.93177698 -6.02558299 -0.72621033 0 0 Z " fill="#0F1E15" transform="translate(325.625,32.375)"/>
<path d="M0 0 C11.34179024 -0.49312131 11.34179024 -0.49312131 14.3984375 1.796875 C16 4 16 4 15.875 7.5 C15.16718535 10.3312586 14.48842699 12.51928835 13 15 C13.99 16.2065625 13.99 16.2065625 15 17.4375 C17 20 17 20 17 21 C15.72125 21.061875 14.4425 21.12375 13.125 21.1875 C12.04605469 21.23970703 12.04605469 21.23970703 10.9453125 21.29296875 C10.30335938 21.19628906 9.66140625 21.09960938 9 21 C8.34 20.01 7.68 19.02 7 18 C6.67 18.99 6.34 19.98 6 21 C4.02 21 2.04 21 0 21 C0 14.07 0 7.14 0 0 Z M6 5 C6 6.32 6 7.64 6 9 C6.99 9 7.98 9 9 9 C8.67 7.68 8.34 6.36 8 5 C7.34 5 6.68 5 6 5 Z " fill="#102017" transform="translate(263,90)"/>
<path d="M0 0 C10 0 10 0 13.125 1 C15.30079325 3.32084613 15.30803776 3.98781705 15.375 7.0625 C15 11 15 11 14 13 C13.34 13 12.68 13 12 13 C12.639375 13.94875 13.27875 14.8975 13.9375 15.875 C16 19 16 19 17 21 C10.9453125 21.1953125 10.9453125 21.1953125 9 21 C8.34 20.34 7.68 19.68 7 19 C6.67 19.66 6.34 20.32 6 21 C4.02 21 2.04 21 0 21 C0 14.07 0 7.14 0 0 Z M6 6 C6 7.32 6 8.64 6 10 C6.99 9.67 7.98 9.34 9 9 C8.67 8.01 8.34 7.02 8 6 C7.34 6 6.68 6 6 6 Z " fill="#102017" transform="translate(165,61)"/>
<path d="M0 0 C2.31 0 4.62 0 7 0 C10.69662387 6.73313634 12.88765305 13.62925744 15 21 C12.69 21 10.38 21 8 21 C7.67 19.35 7.34 17.7 7 16 C4.05908413 16.18415432 4.05908413 16.18415432 1 17 C-0.43637698 18.95163118 -0.43637698 18.95163118 -1 21 C-2.98 21 -4.96 21 -7 21 C-5.62820313 13.51747162 -3.07836721 6.94395046 0 0 Z M3 8 C3 8.99 3 9.98 3 11 C3.66 10.67 4.32 10.34 5 10 C4.34 9.34 3.68 8.68 3 8 Z " fill="#102017" transform="translate(188,90)"/>
<path d="M0 0 C2.31 0 4.62 0 7 0 C10.2414796 6.82779745 12.71019473 13.80172917 15 21 C12.69 21 10.38 21 8 21 C7.67 19.68 7.34 18.36 7 17 C5.02 17.33 3.04 17.66 1 18 C0.67 18.99 0.34 19.98 0 21 C-2.31 21 -4.62 21 -7 21 C-4.96192707 13.8821847 -2.59655258 6.93292719 0 0 Z M3 9 C3 9.99 3 10.98 3 12 C3.66 12 4.32 12 5 12 C4.67 11.01 4.34 10.02 4 9 C3.67 9 3.34 9 3 9 Z " fill="#101F17" transform="translate(190,61)"/>
<path d="M0 0 C4.95 0 9.9 0 15 0 C15 1.98 15 3.96 15 6 C12.36 6 9.72 6 7 6 C7 6.66 7 7.32 7 8 C9.31 8 11.62 8 14 8 C14 9.65 14 11.3 14 13 C11.69 13 9.38 13 7 13 C7 13.99 7 14.98 7 16 C9.64 16 12.28 16 15 16 C15 17.65 15 19.3 15 21 C10.05 21 5.1 21 0 21 C0 14.07 0 7.14 0 0 Z " fill="#101F17" transform="translate(265,61)"/>
<path d="M0 0 C4.62 0 9.24 0 14 0 C14 1.65 14 3.3 14 5 C11.36 5 8.72 5 6 5 C6 5.99 6 6.98 6 8 C8.31 8 10.62 8 13 8 C13 9.65 13 11.3 13 13 C10.69 13 8.38 13 6 13 C6 13.66 6 14.32 6 15 C8.64 15 11.28 15 14 15 C14 16.98 14 18.96 14 21 C9.38 21 4.76 21 0 21 C0 14.07 0 7.14 0 0 Z " fill="#102017" transform="translate(165,33)"/>
<path d="M0 0 C1.17755859 0.02320313 1.17755859 0.02320313 2.37890625 0.046875 C4.4375 0.25 4.4375 0.25 6.4375 1.25 C6.4375 3.23 6.4375 5.21 6.4375 7.25 C4.1275 6.92 1.8175 6.59 -0.5625 6.25 C0.4275 6.91 1.4175 7.57 2.4375 8.25 C5.1875 10.5 5.1875 10.5 7.4375 13.25 C7.50800215 16.7751077 7.12628725 18.45524549 4.8125 21.125 C1.53524552 22.6773837 -0.98078629 22.57561034 -4.5625 22.25 C-5.5525 21.59 -6.5425 20.93 -7.5625 20.25 C-7.75 17.125 -7.75 17.125 -7.5625 14.25 C-4.9225 14.91 -2.2825 15.57 0.4375 16.25 C-1.06599397 13.24301207 -3.6043948 12.66742541 -6.5625 11.25 C-7.5625 10.25 -7.5625 10.25 -7.8125 6.875 C-7.5625 3.25 -7.5625 3.25 -6.33203125 1.5390625 C-4.07256745 -0.10690451 -2.76889083 -0.09123199 0 0 Z " fill="#102017" transform="translate(237.5625,60.75)"/>
<path d="M0 0 C11.35193133 -0.49356223 11.35193133 -0.49356223 14.359375 1.796875 C16.74088203 4.99489872 16.5548473 7.1160689 16 11 C14.375 13.4375 14.375 13.4375 12 15 C8.75 15.25 8.75 15.25 6 15 C6 16.98 6 18.96 6 21 C4.02 21 2.04 21 0 21 C0 14.07 0 7.14 0 0 Z M6 5 C6 6.65 6 8.3 6 10 C7.32 9.67 8.64 9.34 10 9 C10 8.01 10 7.02 10 6 C8.68 5.67 7.36 5.34 6 5 Z " fill="#102017" transform="translate(146,90)"/>
<path d="M0 0 C0 2.31 0 4.62 0 7 C-1.11375 6.814375 -2.2275 6.62875 -3.375 6.4375 C-6.82568861 5.68319343 -6.82568861 5.68319343 -9 7 C-10.0146239 8.8064655 -10.0146239 8.8064655 -10 11 C-8.54331238 13.45714369 -8.54331238 13.45714369 -6 15 C-2.80045046 14.85650653 -2.80045046 14.85650653 0 14 C0.04254356 15.99954746 0.04080783 18.00041636 0 20 C-1.54983261 21.54983261 -3.03668378 21.28132961 -5.1875 21.375 C-8.55260524 21.32133006 -10.75362486 20.99128903 -13.5 19 C-16.57768219 15.30678137 -17.3917702 12.75720954 -17 8 C-15.74166925 4.07696884 -14.65256854 2.47045639 -11.3125 0.0625 C-7.02774946 -1.31185395 -4.39217837 -0.83299935 0 0 Z " fill="#102017" transform="translate(198,33)"/>
<path d="M0 0 C4.62 0 9.24 0 14 0 C14 1.98 14 3.96 14 6 C11.36 6 8.72 6 6 6 C6 6.99 6 7.98 6 9 C8.31 9 10.62 9 13 9 C13.38218767 10.65614657 13.71395102 12.32457024 14 14 C13 15 13 15 9.4375 15.0625 C8.303125 15.041875 7.16875 15.02125 6 15 C6 16.98 6 18.96 6 21 C4.02 21 2.04 21 0 21 C0 14.07 0 7.14 0 0 Z " fill="#101F16" transform="translate(248,61)"/>
<path d="M0 0 C3.3125 -0.3125 3.3125 -0.3125 7 0 C8.9375 2.5 8.9375 2.5 10 5 C10.515625 4.175 11.03125 3.35 11.5625 2.5 C14 0 14 0 17.75 -0.3125 C18.8225 -0.209375 19.895 -0.10625 21 0 C20.18993474 1.64703306 19.3768779 3.29259506 18.5625 4.9375 C18.11003906 5.85402344 17.65757812 6.77054688 17.19140625 7.71484375 C16 10 16 10 15 11 C14.79300437 12.49496842 14.63320741 13.9966592 14.5 15.5 C14.11111111 19.88888889 14.11111111 19.88888889 13 21 C11.00041636 21.04080783 8.99954746 21.04254356 7 21 C6.95875 19.72125 6.9175 18.4425 6.875 17.125 C6.33832637 11.91513749 4.13965814 8.36998012 1.27734375 4.06640625 C0 2 0 2 0 0 Z " fill="#0F1D15" transform="translate(333,33)"/>
<path d="M0 0 C5.7578125 -0.140625 5.7578125 -0.140625 7.9375 1.125 C9.54170024 3.9559416 8.68361519 5.8695654 8 9 C7.27169516 11.10632048 6.47851021 13.19122993 5.625 15.25 C4.99464844 16.80460937 4.99464844 16.80460937 4.3515625 18.390625 C3 21 3 21 0 23 C-4.54054054 22.45945946 -4.54054054 22.45945946 -6 21 C-5.7088426 13.42990761 -2.86700694 6.94006108 0 0 Z " fill="#192920" transform="translate(85,68)"/>
<path d="M0 0 C4.62 0 9.24 0 14 0 C14 1.65 14 3.3 14 5 C11.36 5 8.72 5 6 5 C6 6.32 6 7.64 6 9 C8.64 9 11.28 9 14 9 C14 10.65 14 12.3 14 14 C11.36 14 8.72 14 6 14 C6 16.31 6 18.62 6 21 C4.02 21 2.04 21 0 21 C0 14.07 0 7.14 0 0 Z " fill="#102017" transform="translate(221,90)"/>
<path d="M0 0 C5.61 0 11.22 0 17 0 C17 1.98 17 3.96 17 6 C15.02 6 13.04 6 11 6 C11 10.95 11 15.9 11 21 C9.02 21 7.04 21 5 21 C5 16.05 5 11.1 5 6 C3.35 6 1.7 6 0 6 C0 4.02 0 2.04 0 0 Z " fill="#102017" transform="translate(145,61)"/>
<path d="M0 0 C5.94 0 11.88 0 18 0 C18 1.65 18 3.3 18 5 C16.02 5 14.04 5 12 5 C12 10.28 12 15.56 12 21 C10.02 21 8.04 21 6 21 C6 15.72 6 10.44 6 5 C4.02 5 2.04 5 0 5 C0 3.35 0 1.7 0 0 Z " fill="#102017" transform="translate(201,90)"/>
<path d="M0 0 C5.61 0 11.22 0 17 0 C17 1.65 17 3.3 17 5 C15.02 5 13.04 5 11 5 C11 10.28 11 15.56 11 21 C9.02 21 7.04 21 5 21 C5 15.72 5 10.44 5 5 C3.35 5 1.7 5 0 5 C0 3.35 0 1.7 0 0 Z " fill="#102017" transform="translate(145,33)"/>
<path d="M0 0 C1.98 0 3.96 0 6 0 C6 4.95 6 9.9 6 15 C8.64 15 11.28 15 14 15 C14 16.98 14 18.96 14 21 C9.38 21 4.76 21 0 21 C0 14.07 0 7.14 0 0 Z " fill="#102017" transform="translate(165,90)"/>
<path d="M0 0 C1.98 0 3.96 0 6 0 C6 4.95 6 9.9 6 15 C8.64 15 11.28 15 14 15 C14 16.98 14 18.96 14 21 C9.38 21 4.76 21 0 21 C0 14.07 0 7.14 0 0 Z " fill="#102017" transform="translate(273,33)"/>
<path d="M0 0 C3.0625 0.3125 3.0625 0.3125 5 1.4375 C6.0625 3.3125 6.0625 3.3125 5.9375 6.375 C5.0625 9.3125 5.0625 9.3125 2.0625 11.3125 C-1.0625 11.0625 -1.0625 11.0625 -3.9375 10.3125 C-5.31875018 7.54999964 -5.12829306 5.36518901 -4.9375 2.3125 C-2.9375 0.3125 -2.9375 0.3125 0 0 Z " fill="#D5F301" transform="translate(105.9375,86.6875)"/>
</svg>
